<?xml version="1.0" standalone="no"?>
<!DOCTYPE svg PUBLIC "-//W3C//DTD SVG 1.1//EN" "http://www.w3.org/Graphics/SVG/1.1/DTD/svg11.dtd" >
<svg>
<metadata>
Created by FontForge 20120731 at Mon Jul  1 19:08:48 2019
 By www
Copyright 1990 Martin Majoor. Published by FontShop International for the FontFont library. ScalaSans is a trademark of FSI, Fonts and Software GmbH. http://www.fontfont.de
</metadata>
<defs>
<font id="ScalaSans-BoldLF" horiz-adv-x="550" >
  <font-face 
    font-family="Scala Sans"
    font-weight="500"
    font-stretch="normal"
    units-per-em="1000"
    panose-1="0 0 0 0 0 0 0 0 0 0"
    ascent="800"
    descent="-200"
    x-height="465"
    cap-height="660"
    bbox="-143 -266 1199 863"
    underline-thickness="42"
    underline-position="-145"
    stemh="68"
    stemv="99"
    unicode-range="U+0020-FB02"
  />
<missing-glyph horiz-adv-x="250" 
 />
    <glyph glyph-name=".notdef" horiz-adv-x="250" 
 />
    <glyph glyph-name="space" unicode=" " horiz-adv-x="250" 
 />
    <glyph glyph-name="exclam" unicode="!" horiz-adv-x="264" 
d="M200 736l-6 -541h-114l-6 541h126zM216 60c0 -44 -35 -80 -79 -80s-79 36 -79 80s35 80 79 80s79 -36 79 -80z" />
    <glyph glyph-name="quotedbl" unicode="&#x22;" horiz-adv-x="412" 
d="M328 433h-83v227h83v-227zM167 433h-83v227h83v-227z" />
    <glyph glyph-name="numbersign" unicode="#" 
d="M571 482l-22 -101h-109l-17 -94h110l-18 -97h-111l-36 -190h-108l35 190h-97l-36 -190h-108l37 190h-112l18 97h113l19 94h-114l22 101h114l34 176h107l-34 -176h96l33 176h109l-33 -176h108zM332 381h-97l-17 -94h95z" />
    <glyph glyph-name="dollar" unicode="$" horiz-adv-x="543" 
d="M508 176c0 -70 -40 -133 -103 -164c-25 -12 -43 -17 -92 -25v-56h-70v56c-48 5 -65 8 -95 16c-32 8 -54 17 -106 41l51 101c66 -38 89 -45 150 -51v195c-15 10 -26 17 -33 22c-28 19 -52 32 -69 44c-58 41 -85 88 -85 147c0 98 67 160 187 171v56h70v-56
c38 -2 51 -3 72 -7c36 -6 57 -13 103 -36l-56 -96c-56 28 -74 33 -119 38v-176c17 -11 29 -19 38 -25c34 -22 63 -42 86 -60c47 -37 71 -82 71 -135zM243 440v132c-44 -11 -63 -30 -63 -60c0 -25 15 -42 63 -72zM384 161c0 31 -20 55 -71 84v-151c43 5 71 31 71 67z" />
    <glyph glyph-name="percent" unicode="%" horiz-adv-x="850" 
d="M816 162c0 -96 -79 -175 -175 -175c-97 0 -175 79 -175 175c0 97 78 175 175 175c96 0 175 -78 175 -175zM750 685l-565 -729h-95l566 729h94zM384 495c0 -97 -78 -175 -175 -175c-96 0 -175 78 -175 175s79 176 175 176c97 0 175 -79 175 -176zM739 162
c0 55 -44 98 -98 98c-55 0 -98 -43 -98 -98c0 -54 43 -98 98 -98c54 0 98 44 98 98zM307 495c0 54 -43 98 -98 98c-54 0 -98 -44 -98 -98s44 -98 98 -98c55 0 98 44 98 98z" />
    <glyph glyph-name="ampersand" unicode="&#x26;" horiz-adv-x="701" 
d="M709 101c-21 -41 -33 -57 -55 -76c-28 -24 -62 -37 -99 -37c-52 0 -85 19 -132 75c-36 -26 -49 -35 -67 -44c-39 -20 -88 -32 -137 -32c-121 0 -201 71 -201 180c0 68 37 126 124 193l30 23c-18 22 -33 41 -47 59c-34 44 -49 80 -49 122c0 108 83 176 214 176
c124 0 199 -54 199 -144c0 -42 -25 -80 -72 -112l-57 -38l-50 63l38 33c12 11 20 25 20 41c0 36 -36 65 -81 65c-52 0 -88 -33 -88 -80c0 -33 17 -68 55 -115l176 -220c16 24 22 34 29 57c9 27 12 44 15 87h125c-5 -70 -11 -100 -28 -135c-15 -31 -30 -50 -72 -91
c34 -39 46 -48 64 -48c22 0 38 15 61 60zM348 151l-126 151l-31 -32c-30 -30 -41 -51 -41 -81c0 -53 39 -96 85 -96c14 0 33 5 50 12c23 10 36 20 63 46z" />
    <glyph glyph-name="quoteright" unicode="&#x2019;" horiz-adv-x="251" 
d="M208 597c0 -61 -33 -146 -84 -222h-73c16 31 20 41 31 75c12 33 14 43 17 74l-56 134c39 19 53 23 85 23c54 0 80 -27 80 -84z" />
    <glyph glyph-name="parenleft" unicode="(" horiz-adv-x="309" 
d="M297 -251h-107c-29 51 -37 71 -58 139c-37 118 -51 207 -51 315s15 202 51 315c19 60 28 83 58 142h107c-31 -70 -41 -99 -59 -161c-28 -100 -41 -196 -41 -296s12 -191 41 -296c19 -71 29 -96 59 -158z" />
    <glyph glyph-name="parenright" unicode=")" horiz-adv-x="309" 
d="M233 206c0 -109 -14 -202 -50 -315c-19 -60 -29 -83 -59 -142h-107c31 70 41 99 59 161c28 100 41 196 41 296c0 99 -12 191 -41 296c-20 71 -29 96 -59 158h107c29 -52 37 -71 59 -140c36 -117 50 -206 50 -314z" />
    <glyph glyph-name="asterisk" unicode="*" horiz-adv-x="500" 
d="M479 479l-143 -37l-28 86l138 54zM305 685l-9 -148h-90l-9 148h108zM425 311l-88 -63l-79 124l73 53zM192 528l-28 -86l-143 38l33 102zM243 372l-79 -125l-87 64l93 114z" />
    <glyph glyph-name="plus" unicode="+" 
d="M512 196h-196v-196h-82v196h-196v82h196v196h82v-196h196v-82z" />
    <glyph glyph-name="comma" unicode="," horiz-adv-x="251" 
d="M204 57c0 -61 -32 -147 -83 -222h-72c16 30 20 41 31 74c11 34 13 43 16 75l-55 134c39 18 53 22 85 22c54 0 78 -26 78 -83z" />
    <glyph glyph-name="hyphen" unicode="-" horiz-adv-x="276" 
d="M242 174h-208v111h208v-111z" />
    <glyph glyph-name="period" unicode="." horiz-adv-x="251" 
d="M205 67c0 -44 -35 -80 -79 -80s-80 36 -80 80c0 45 36 80 80 80s79 -35 79 -80z" />
    <glyph glyph-name="slash" unicode="/" horiz-adv-x="409" 
d="M389 660l-251 -905h-120l252 905h119z" />
    <glyph glyph-name="zero" unicode="0" horiz-adv-x="500" 
d="M484 334c0 -203 -96 -349 -229 -349s-229 146 -229 349c0 202 96 348 229 348s229 -146 229 -348zM354 334c0 132 -44 237 -99 237s-99 -106 -99 -237c0 -133 44 -238 100 -238c54 0 98 106 98 238z" />
    <glyph glyph-name="one" unicode="1" horiz-adv-x="500" 
d="M342 0h-126v553h-151v107h277v-660z" />
    <glyph glyph-name="two" unicode="2" horiz-adv-x="500" 
d="M464 0h-415v82l132 157c39 47 85 113 108 155c13 24 22 58 22 80c0 48 -27 79 -69 79c-18 0 -46 -7 -65 -15c-34 -15 -55 -27 -103 -66l-56 94c65 48 95 65 146 81c32 10 69 16 100 16c111 0 179 -65 179 -173c0 -74 -35 -156 -98 -232l-126 -151h245v-107z" />
    <glyph glyph-name="three" unicode="3" horiz-adv-x="500" 
d="M428 209c0 -130 -94 -218 -232 -218c-59 0 -93 8 -162 40l44 95c52 -30 75 -38 109 -38c61 0 110 49 110 111c0 16 -3 32 -10 47c-15 35 -31 43 -84 43h-75v88c50 7 68 13 93 30c28 19 45 52 45 86c0 42 -23 66 -63 66c-13 0 -29 -3 -42 -8c-19 -8 -29 -14 -77 -42
l-50 82c36 27 51 36 84 50c41 18 74 25 114 25c103 0 165 -53 165 -143c0 -32 -10 -64 -29 -92c-19 -30 -32 -41 -70 -60c80 -7 130 -69 130 -162z" />
    <glyph glyph-name="four" unicode="4" horiz-adv-x="500" 
d="M486 157h-94v-157h-113v157h-264v69l308 434h69v-409h94v-94zM279 251v195l-132 -195h132z" />
    <glyph glyph-name="five" unicode="5" horiz-adv-x="500" 
d="M437 222c0 -133 -97 -235 -224 -235c-23 0 -47 3 -70 7c-35 6 -54 12 -99 31l38 101c53 -25 81 -33 115 -33c64 0 113 50 113 116c0 92 -58 124 -222 124h-6v327h333v-100h-214v-133c50 -1 71 -4 104 -15c85 -29 132 -97 132 -190z" />
    <glyph glyph-name="six" unicode="6" horiz-adv-x="500" 
d="M479 219c0 -141 -83 -234 -210 -234c-150 0 -232 110 -232 312c0 116 30 205 92 271c24 26 53 48 84 63c57 28 103 36 211 36c9 0 18 0 27 -1v-100h-49c-52 0 -68 -1 -106 -12c-29 -8 -55 -24 -74 -46c-27 -31 -37 -59 -48 -131c57 24 86 31 130 31
c110 0 175 -70 175 -189zM353 204c0 56 -31 94 -78 94c-9 0 -23 -2 -41 -5c-35 -5 -39 -6 -66 -16c6 -131 35 -188 96 -188c51 0 89 49 89 115z" />
    <glyph glyph-name="seven" unicode="7" horiz-adv-x="500" 
d="M453 572l-107 -270c-12 -31 -28 -68 -48 -113c-35 -81 -48 -108 -91 -189h-138c27 49 48 86 60 110c17 33 37 75 60 128c19 42 34 76 44 101l81 214h-257v107h396v-88z" />
    <glyph glyph-name="eight" unicode="8" horiz-adv-x="500" 
d="M469 168c0 -107 -97 -187 -227 -187c-123 0 -216 70 -216 163c0 54 41 120 98 164l50 38l-57 44c-41 32 -65 77 -65 125c0 93 90 167 202 167c104 0 178 -63 178 -152c0 -46 -21 -88 -57 -121l-56 -51l62 -44c57 -41 88 -89 88 -146zM315 527c0 39 -26 65 -64 65
c-45 0 -78 -32 -78 -77c0 -24 10 -48 32 -69l38 -37l38 37c20 19 34 54 34 81zM343 160c0 34 -15 60 -62 98l-38 31l-38 -31c-36 -30 -54 -63 -54 -97c0 -46 42 -85 91 -85c55 0 101 39 101 84z" />
    <glyph glyph-name="nine" unicode="9" horiz-adv-x="500" 
d="M473 358c0 -116 -31 -205 -92 -271c-25 -27 -53 -48 -84 -63c-58 -28 -107 -35 -237 -35v100h7c91 0 106 1 147 12c28 7 54 24 74 46c27 31 37 59 48 131c-57 -24 -86 -31 -130 -31c-110 0 -175 70 -175 189c0 141 84 234 211 234c149 0 231 -111 231 -312zM342 378
c-6 131 -35 188 -96 188c-51 0 -89 -49 -89 -115c0 -56 31 -94 79 -94c9 0 22 2 40 5c36 5 39 6 66 16z" />
    <glyph glyph-name="colon" unicode=":" horiz-adv-x="251" 
d="M205 398c0 -44 -35 -80 -79 -80s-80 36 -80 80s36 80 80 80s79 -36 79 -80zM205 67c0 -44 -35 -80 -79 -80s-80 36 -80 80c0 45 36 80 80 80s79 -35 79 -80z" />
    <glyph glyph-name="semicolon" unicode=";" horiz-adv-x="251" 
d="M204 398c0 -44 -35 -80 -79 -80s-79 36 -79 80s35 80 79 80s79 -36 79 -80zM204 57c0 -61 -32 -147 -83 -222h-72c16 30 20 41 31 74c11 34 13 43 16 75l-55 134c39 18 53 22 85 22c54 0 78 -26 78 -83z" />
    <glyph glyph-name="less" unicode="&#x3c;" 
d="M511 0l-472 210v54l472 210v-80l-355 -157l355 -157v-80z" />
    <glyph glyph-name="equal" unicode="=" 
d="M525 272h-500v82h500v-82zM525 109h-500v82h500v-82z" />
    <glyph glyph-name="greater" unicode="&#x3e;" 
d="M511 210l-472 -210v80l355 157l-355 157v80l472 -210v-54z" />
    <glyph glyph-name="question" unicode="?" horiz-adv-x="418" 
d="M384 446c0 -50 -18 -93 -51 -121c-25 -20 -50 -27 -98 -27h-26v-95h-119v193h163c5 26 7 41 7 60c0 98 -73 160 -201 173l25 113c78 -9 111 -18 156 -45c89 -53 144 -149 144 -251zM226 60c0 -44 -36 -80 -79 -80c-44 0 -80 36 -80 80s36 80 80 80c43 0 79 -36 79 -80z
" />
    <glyph glyph-name="at" unicode="@" horiz-adv-x="1000" 
d="M909 264c0 -159 -104 -274 -248 -274c-81 0 -117 35 -117 113v9l5 24c-32 -57 -51 -78 -95 -105c-28 -17 -51 -25 -72 -25c-54 0 -94 67 -94 158c0 177 109 315 248 315c41 0 74 -7 153 -30l-55 -300c-2 -13 -5 -29 -5 -38c0 -29 16 -43 49 -43c80 0 140 81 140 188
c0 162 -138 296 -307 296c-174 0 -319 -145 -319 -320c0 -171 143 -315 314 -315c17 0 35 1 53 4c33 6 49 11 87 29l33 -86c-15 -7 -26 -12 -34 -14c-41 -17 -102 -27 -145 -27c-214 0 -402 191 -402 410c0 223 188 412 410 412c218 0 401 -174 401 -381zM572 375
c-17 6 -38 9 -59 9c-61 0 -115 -96 -115 -207c0 -43 7 -59 25 -59c14 0 43 21 66 49c11 13 21 29 32 50c18 36 35 81 40 105z" />
    <glyph glyph-name="A" unicode="A" horiz-adv-x="595" 
d="M593 0h-132l-52 163h-221l-54 -163h-132l239 660h113zM375 270l-77 239l-76 -239h153z" />
    <glyph glyph-name="B" unicode="B" horiz-adv-x="591" 
d="M557 176c0 -114 -72 -176 -204 -176h-269v660h239c86 0 129 -11 165 -44c32 -28 52 -75 52 -118c0 -37 -14 -76 -38 -104c-29 -33 -56 -45 -108 -48c100 -2 163 -67 163 -170zM400 476c0 53 -38 84 -102 84h-82v-170h75c71 0 109 30 109 86zM419 190c0 60 -43 93 -121 93
h-82v-182h82c39 0 57 3 76 12c28 14 45 43 45 77z" />
    <glyph glyph-name="C" unicode="C" horiz-adv-x="605" 
d="M582 609l-48 -100c-43 31 -94 46 -152 46c-127 0 -218 -90 -218 -215c0 -142 94 -235 238 -235c47 0 86 8 145 31l23 -106c-42 -19 -59 -25 -89 -32c-32 -7 -67 -11 -106 -11c-103 0 -177 26 -239 82c-70 63 -111 161 -111 264c0 96 36 183 101 247c66 65 140 92 249 92
c84 0 150 -20 207 -63z" />
    <glyph glyph-name="D" unicode="D" horiz-adv-x="711" 
d="M686 332c0 -88 -33 -173 -91 -235c-61 -65 -148 -97 -267 -97h-244v660h245c125 0 203 -28 268 -97c57 -61 89 -145 89 -231zM550 331c0 75 -29 144 -76 179c-35 26 -86 39 -158 39h-100v-438h100c150 0 234 79 234 220z" />
    <glyph glyph-name="E" unicode="E" horiz-adv-x="539" 
d="M505 0h-415v660h402v-107h-276v-163h226v-107h-226v-176h289v-107z" />
    <glyph glyph-name="F" unicode="F" horiz-adv-x="522" 
d="M499 553h-283v-170h232v-106h-232v-277h-126v660h409v-107z" />
    <glyph glyph-name="G" unicode="G" horiz-adv-x="708" 
d="M635 25c-30 -7 -52 -12 -67 -16c-70 -16 -111 -22 -166 -22c-219 0 -371 140 -371 344c0 100 38 187 109 252c68 62 144 88 258 88c48 0 96 -5 138 -15c32 -8 52 -15 98 -35l-30 -105c-24 9 -42 15 -54 19c-47 16 -94 24 -136 24c-148 0 -251 -91 -251 -222
c0 -135 113 -238 260 -238c30 0 47 3 86 14v182h126v-270z" />
    <glyph glyph-name="H" unicode="H" horiz-adv-x="771" 
d="M681 0h-126v283h-339v-283h-126v660h126v-264h339v264h126v-660z" />
    <glyph glyph-name="I" unicode="I" horiz-adv-x="300" 
d="M213 0h-126v660h126v-660z" />
    <glyph glyph-name="J" unicode="J" horiz-adv-x="300" 
d="M213 -19c-18 -58 -27 -79 -54 -123c-20 -33 -32 -50 -65 -91l-94 63c34 53 41 67 56 97c23 48 32 96 32 167v566h125v-679z" />
    <glyph glyph-name="K" unicode="K" horiz-adv-x="571" 
d="M574 0h-144l-220 314v-314h-126v660h126v-308l207 308h145l-227 -321z" />
    <glyph glyph-name="L" unicode="L" horiz-adv-x="495" 
d="M486 0h-396v660h126v-553h270v-107z" />
    <glyph glyph-name="M" unicode="M" horiz-adv-x="878" 
d="M782 0h-120v484c-5 -34 -4 -39 -25 -94l-151 -390h-113l-138 383c-14 38 -15 49 -25 105v-488h-114v660h151l176 -471c7 -19 10 -26 13 -51c4 31 6 35 12 51l183 471h151v-660z" />
    <glyph glyph-name="N" unicode="N" horiz-adv-x="759" 
d="M662 -6h-132l-283 427c-2 3 -6 12 -14 26c-4 8 -7 13 -8 14c-4 8 -6 12 -9 23v-484h-120v660h145l277 -434c1 -2 4 -7 7 -14s5 -11 6 -13l6 -17l6 -12v490h119v-666z" />
    <glyph glyph-name="O" unicode="O" horiz-adv-x="763" 
d="M732 330c0 -201 -145 -343 -350 -343c-206 0 -351 142 -351 343c-1 204 142 342 351 342c208 0 350 -138 350 -342zM598 330c0 133 -92 233 -216 233c-125 0 -217 -100 -217 -233c0 -134 92 -233 217 -233c124 0 216 99 216 233z" />
    <glyph glyph-name="P" unicode="P" horiz-adv-x="556" 
d="M547 458c0 -73 -26 -136 -75 -178c-47 -40 -105 -57 -195 -57c-25 0 -39 1 -61 3v-226h-126v660h226c86 0 134 -15 175 -54c37 -37 56 -87 56 -148zM417 448c0 72 -35 105 -113 105h-88v-220l16 -1h16c14 0 23 -1 28 -1c98 0 141 36 141 117z" />
    <glyph glyph-name="Q" unicode="Q" horiz-adv-x="763" 
d="M732 330c0 -95 -32 -178 -93 -243c-44 -47 -71 -63 -142 -87c12 -24 18 -33 37 -52c15 -15 31 -29 47 -41c21 -15 37 -24 79 -45l-107 -95c-56 43 -78 61 -119 101c-21 21 -40 40 -56 58c-22 25 -31 37 -51 68c-41 2 -59 5 -82 13c-127 43 -214 174 -214 323
c0 204 142 342 351 342c208 0 350 -138 350 -342zM598 330c0 133 -92 233 -216 233s-217 -100 -217 -233c0 -134 93 -233 217 -233s216 99 216 233z" />
    <glyph glyph-name="R" unicode="R" horiz-adv-x="584" 
d="M568 0h-138l-151 264h-63v-264h-126v660h220c96 0 140 -12 179 -49c36 -33 54 -81 54 -143c0 -51 -12 -92 -36 -124c-25 -32 -48 -46 -103 -61zM413 465c0 63 -33 88 -115 88h-82v-182h82c80 0 115 28 115 94z" />
    <glyph glyph-name="S" unicode="S" horiz-adv-x="534" 
d="M505 616l-50 -113c-70 31 -127 47 -171 47c-59 0 -97 -24 -97 -61c0 -28 16 -45 63 -70c101 -54 167 -96 198 -127c28 -28 45 -72 45 -118c0 -118 -86 -187 -232 -187c-20 0 -40 1 -59 4c-47 6 -69 14 -138 46c-9 4 -24 11 -43 20l53 116c48 -26 68 -36 94 -46
c33 -12 69 -19 95 -19c58 0 96 26 96 66c0 28 -15 47 -58 71l-102 58c-117 67 -153 111 -153 183c0 33 10 67 26 92c11 17 28 34 49 49c48 33 89 44 166 44c44 0 83 -5 124 -17c32 -10 50 -17 94 -38z" />
    <glyph glyph-name="T" unicode="T" horiz-adv-x="539" 
d="M530 553h-198v-553h-126v553h-198v107h522v-107z" />
    <glyph glyph-name="U" unicode="U" horiz-adv-x="700" 
d="M627 258c0 -121 -22 -175 -91 -223c-48 -33 -104 -48 -186 -48c-83 0 -137 14 -187 48c-68 47 -90 102 -90 223v402h125v-409c0 -98 51 -147 156 -147c96 0 147 52 147 147v409h126v-402z" />
    <glyph glyph-name="V" unicode="V" horiz-adv-x="583" 
d="M580 660l-245 -679h-88l-245 679h138l151 -446l2 -9l2 -11l3 -12l-1 7c0 9 1 12 3 17l4 8l144 446h132z" />
    <glyph glyph-name="W" unicode="W" horiz-adv-x="864" 
d="M863 660l-239 -673h-88l-100 283l-101 -283h-81l-252 673h132l170 -497l82 220l-107 277h113l50 -132l44 132h107l-101 -264l95 -226l157 490h119z" />
    <glyph glyph-name="X" unicode="X" horiz-adv-x="572" 
d="M568 0h-145l-138 233l-145 -233h-138l214 333l-201 327h144l126 -220l132 220h145l-202 -314z" />
    <glyph glyph-name="Y" unicode="Y" 
d="M549 660l-220 -377v-283h-126v283l-201 377h138l132 -258l139 258h138z" />
    <glyph glyph-name="Z" unicode="Z" horiz-adv-x="595" 
d="M564 0h-528v82l358 471h-352v107h522v-82l-352 -471h352v-107z" />
    <glyph glyph-name="bracketleft" unicode="[" horiz-adv-x="250" 
d="M245 -245h-201v905h201v-88h-82v-729h82v-88z" />
    <glyph glyph-name="backslash" unicode="\" horiz-adv-x="409" 
d="M395 -245h-119l-258 905h120z" />
    <glyph glyph-name="bracketright" unicode="]" horiz-adv-x="250" 
d="M207 -245h-201v88h82v729h-82v88h201v-905z" />
    <glyph glyph-name="asciicircum" unicode="^" horiz-adv-x="522" 
d="M496 0h-82l-157 352l-158 -352h-75l208 472h56z" />
    <glyph glyph-name="underscore" unicode="_" horiz-adv-x="500" 
d="M500 -82h-500v82h500v-82z" />
    <glyph glyph-name="quoteleft" unicode="&#x2018;" horiz-adv-x="251" 
d="M209 377c-39 -19 -53 -23 -85 -23c-54 0 -78 27 -78 84c0 61 32 146 84 222h71c-15 -31 -20 -42 -31 -75s-13 -43 -16 -75z" />
    <glyph glyph-name="a" unicode="a" horiz-adv-x="476" 
d="M444 84l-19 -90h-25c-60 0 -79 10 -100 51c-44 -40 -83 -57 -130 -57c-79 0 -135 52 -135 126c0 16 3 32 8 47c16 43 44 65 112 85l132 38v39c0 50 -18 73 -57 73c-36 0 -65 -19 -65 -42c0 -4 1 -6 3 -12l-114 -25c-5 14 -6 19 -6 32c0 82 72 129 198 129
c111 0 161 -46 161 -148v-194c0 -42 5 -49 37 -52zM287 116v91l-119 -39c-7 -18 -9 -27 -9 -39c0 -30 18 -48 48 -48c15 0 33 5 49 14c8 4 14 8 31 21z" />
    <glyph glyph-name="b" unicode="b" horiz-adv-x="518" 
d="M495 254c0 -165 -104 -268 -272 -268c-29 0 -62 4 -94 10c-24 4 -36 7 -66 17v716h119v-276c34 17 73 25 116 25c120 0 197 -87 197 -224zM370 248c0 84 -45 138 -115 138c-25 0 -44 -6 -73 -21v-277c26 -10 38 -13 55 -13c75 0 133 75 133 173z" />
    <glyph glyph-name="c" unicode="c" horiz-adv-x="444" 
d="M436 32c-17 -8 -30 -14 -39 -18c-43 -18 -90 -27 -136 -27c-144 0 -237 95 -237 241c0 150 99 251 247 251c26 0 51 -3 76 -8c34 -8 50 -15 89 -38l-57 -91c-35 27 -58 36 -94 36c-79 0 -135 -62 -135 -149c0 -83 50 -140 122 -140c40 0 69 10 120 40z" />
    <glyph glyph-name="d" unicode="d" horiz-adv-x="531" 
d="M468 0h-119v63c-17 -27 -25 -36 -47 -50c-27 -17 -56 -26 -87 -26c-110 0 -191 98 -191 232c0 144 99 260 222 260c13 0 27 -2 41 -5c25 -6 36 -10 62 -28v283h119v-729zM349 155v123c0 26 -3 50 -6 60c-8 25 -41 43 -78 43c-66 0 -115 -65 -115 -153
c0 -84 39 -143 96 -143c37 0 74 25 103 70z" />
    <glyph glyph-name="e" unicode="e" horiz-adv-x="468" 
d="M451 45c-22 -12 -39 -20 -50 -25c-49 -22 -99 -33 -153 -33c-138 0 -225 91 -225 233c0 147 100 258 233 258c115 0 195 -87 195 -213v-51h-308c2 -39 5 -55 16 -74c20 -34 60 -56 104 -56c18 0 36 2 55 8c28 8 46 17 89 44zM331 289c-3 71 -27 99 -83 99
c-53 0 -89 -36 -99 -99h182z" />
    <glyph glyph-name="f" unicode="f" horiz-adv-x="288" 
d="M440 704l-52 -90c-41 22 -65 29 -96 29s-53 -10 -68 -31c-18 -26 -23 -50 -23 -120v-27h98v-88h-98v-377h-119v377h-76v76l76 12v60c0 137 74 217 202 217c17 0 37 -2 57 -5c35 -6 54 -12 99 -33z" />
    <glyph glyph-name="g" unicode="g" horiz-adv-x="507" 
d="M500 375h-82c16 -23 21 -39 21 -69c0 -106 -82 -177 -204 -177c-12 0 -19 0 -34 3c-31 -23 -46 -38 -46 -50c0 -10 8 -13 31 -13h163c91 0 134 -37 134 -112c0 -116 -112 -200 -268 -200c-114 0 -191 47 -191 117c0 36 20 67 74 113c-46 17 -65 35 -65 63
c0 27 16 48 61 78c6 5 16 11 29 21c-21 16 -30 23 -41 36c-27 32 -41 70 -41 114c0 111 76 179 199 179c34 0 53 -4 97 -19h69l94 6v-90zM317 305c0 48 -35 87 -78 87c-42 0 -76 -40 -76 -88c0 -47 34 -85 77 -85s77 38 77 86zM371 -57c0 19 -19 29 -59 29h-145
c-4 -7 -7 -13 -10 -16c-14 -23 -22 -41 -22 -53c0 -29 43 -52 98 -52c36 0 75 13 103 36c22 17 35 38 35 56z" />
    <glyph glyph-name="h" unicode="h" horiz-adv-x="545" 
d="M478 0h-120v299c0 58 -10 79 -39 79c-25 0 -60 -25 -112 -81l-16 -17v-280h-120v729h120v-341c56 61 102 86 161 86c84 0 126 -44 126 -132v-342z" />
    <glyph glyph-name="i" unicode="i" horiz-adv-x="247" 
d="M191 632c0 -45 -30 -81 -67 -81s-68 36 -68 81s31 81 68 81s67 -36 67 -81zM183 0h-119v465h119v-465z" />
    <glyph glyph-name="j" unicode="j" horiz-adv-x="245" 
d="M189 632c0 -45 -30 -81 -67 -81s-67 36 -67 81s30 81 67 81s67 -36 67 -81zM182 -58c-20 -51 -30 -71 -49 -102c-16 -26 -27 -42 -58 -83l-88 62c28 34 37 49 50 78c18 41 26 82 26 136v432h119v-523z" />
    <glyph glyph-name="k" unicode="k" horiz-adv-x="467" 
d="M463 0h-136l-145 239v-239h-119v729h119v-465l145 201h134l-167 -214z" />
    <glyph glyph-name="l" unicode="l" horiz-adv-x="239" 
d="M179 0h-119v729h119v-729z" />
    <glyph glyph-name="m" unicode="m" horiz-adv-x="832" 
d="M765 0h-120v299c0 58 -10 79 -38 79c-15 0 -39 -12 -65 -34c-17 -14 -34 -31 -64 -65v-279h-120v299c0 58 -10 79 -39 79c-25 0 -60 -25 -112 -81l-16 -17v-280h-120v465h120v-77c56 61 102 86 161 86c69 0 111 -32 122 -91c51 61 104 91 165 91c84 0 126 -44 126 -132
v-342z" />
    <glyph glyph-name="n" unicode="n" horiz-adv-x="545" 
d="M478 0h-120v299c0 58 -10 79 -39 79c-25 0 -60 -25 -112 -81l-16 -17v-280h-120v465h120v-77c56 61 102 86 161 86c84 0 126 -44 126 -132v-342z" />
    <glyph glyph-name="o" unicode="o" horiz-adv-x="516" 
d="M492 233c0 -140 -101 -246 -234 -246s-234 106 -234 246c0 139 101 245 234 245s234 -106 234 -245zM368 233c0 82 -50 150 -110 150s-110 -68 -110 -150c0 -83 50 -151 110 -151s110 68 110 151z" />
    <glyph glyph-name="p" unicode="p" horiz-adv-x="538" 
d="M505 246c0 -147 -99 -260 -226 -260c-12 0 -25 1 -37 3c-28 5 -38 10 -61 30v-252h-120v698h120v-63c23 30 35 42 51 53c23 15 50 23 80 23c112 0 193 -98 193 -232zM380 238c0 84 -40 143 -96 143c-40 0 -74 -24 -103 -73v-119v-36c0 -33 6 -45 26 -56
c16 -8 39 -14 59 -14c64 0 114 68 114 155z" />
    <glyph glyph-name="q" unicode="q" horiz-adv-x="514" 
d="M465 -233h-120v239c-25 -7 -33 -9 -44 -11c-18 -4 -46 -7 -63 -7c-120 0 -206 95 -206 229c0 159 107 263 271 263c28 0 59 -3 95 -10c29 -5 39 -7 67 -18v-685zM345 103v274c-19 11 -35 15 -57 15c-75 0 -131 -73 -131 -169c0 -84 47 -138 120 -138c18 0 26 2 68 18z
" />
    <glyph glyph-name="r" unicode="r" horiz-adv-x="337" 
d="M344 439l-38 -116c-13 10 -23 14 -36 14c-19 0 -40 -13 -58 -35c-22 -27 -32 -54 -32 -89v-213h-119v465h103l5 -102c45 79 74 109 110 109c25 0 46 -11 65 -33z" />
    <glyph glyph-name="s" unicode="s" horiz-adv-x="447" 
d="M411 433l-38 -97c-12 8 -23 15 -32 20c-33 20 -73 32 -107 32c-46 0 -76 -18 -76 -44c0 -21 16 -34 58 -49c52 -18 119 -49 140 -64c29 -21 48 -62 48 -103c0 -85 -74 -141 -186 -141c-23 0 -48 3 -76 9c-43 9 -64 17 -115 43l38 97c47 -29 66 -38 100 -49
c18 -6 35 -9 52 -9c46 0 73 15 73 40c0 21 -15 37 -47 49l-80 31c-82 32 -120 75 -120 137c0 87 76 146 189 146c22 0 48 -3 77 -9c44 -9 60 -15 102 -39z" />
    <glyph glyph-name="t" unicode="t" horiz-adv-x="309" 
d="M311 45c-16 -10 -31 -19 -44 -27c-35 -20 -71 -31 -104 -31c-62 0 -91 32 -91 101v289h-69v76l69 12v139h113v-139h101v-88h-101v-207c0 -52 5 -67 24 -67c14 0 31 7 64 29z" />
    <glyph glyph-name="u" unicode="u" horiz-adv-x="545" 
d="M474 0h-120v78c-56 -62 -102 -86 -161 -86c-84 0 -126 43 -126 131v342h120v-299c0 -57 10 -79 38 -79c26 0 61 26 113 81l16 17v280h120v-465z" />
    <glyph glyph-name="v" unicode="v" horiz-adv-x="464" 
d="M460 465l-179 -465h-119l-156 465h125l94 -308l3 -20l3 20l104 308h125z" />
    <glyph glyph-name="w" unicode="w" horiz-adv-x="701" 
d="M692 465l-148 -465h-119l-59 207l-17 62l-17 -62l-59 -207h-120l-148 465h126l86 -328l1 -13l1 13l77 274l-14 54h120l80 -327v-14l1 14l90 327h119z" />
    <glyph glyph-name="x" unicode="x" horiz-adv-x="456" 
d="M451 465l-160 -228l155 -237h-130l-92 148l-97 -148h-123l160 228l-159 237h132l92 -146l98 146h124z" />
    <glyph glyph-name="y" unicode="y" horiz-adv-x="433" 
d="M428 465l-156 -440c-23 -66 -41 -102 -75 -159c-29 -48 -42 -67 -82 -117l-98 64c44 47 60 67 86 107c30 47 45 76 71 151l-171 394h130l82 -207l12 -56l13 56l70 207h118z" />
    <glyph glyph-name="z" unicode="z" horiz-adv-x="431" 
d="M404 0h-377v88l226 283h-226v94h377v-75l-239 -296h239v-94z" />
    <glyph glyph-name="braceleft" unicode="{" horiz-adv-x="409" 
d="M372 -163l-2 -93h-82c-87 0 -130 45 -130 134v210c0 73 -29 119 -75 119h-38v82h38c49 0 75 40 75 113v209c0 89 43 133 130 133h82l2 -78h-38c-51 0 -75 -33 -75 -100l-1 -188c0 -41 -6 -69 -20 -92c-15 -25 -25 -30 -73 -36c26 -3 33 -5 41 -8c34 -14 52 -55 52 -120
l1 -185c0 -66 26 -100 75 -100h38z" />
    <glyph glyph-name="bar" unicode="|" horiz-adv-x="250" 
d="M180 -240h-111v968h111v-968z" />
    <glyph glyph-name="braceright" unicode="}" horiz-adv-x="409" 
d="M372 199h-38c-49 0 -75 -39 -75 -113v-208c0 -89 -43 -134 -131 -134h-82l-1 78h38c50 0 75 33 75 101v188c0 41 6 68 21 92c15 25 25 29 72 36c-25 3 -32 5 -40 8c-35 14 -53 55 -53 119v186c0 66 -26 100 -75 100h-38l1 92h82c88 0 131 -44 131 -133v-210
c0 -74 29 -120 75 -120h38v-82z" />
    <glyph glyph-name="asciitilde" unicode="~" horiz-adv-x="544" 
d="M538 205c-33 -24 -47 -32 -75 -43c-31 -12 -62 -18 -91 -18c-42 0 -68 8 -131 38c-31 15 -49 19 -71 19c-40 0 -85 -17 -125 -48l-41 69c32 26 46 35 78 48c29 12 57 18 80 18s50 -6 81 -20l50 -22c30 -13 48 -18 71 -18c21 0 43 4 63 11c23 8 36 16 66 37z" />
    <glyph glyph-name="exclamdown" unicode="&#xa1;" horiz-adv-x="264" 
d="M216 452c0 -44 -35 -79 -79 -79s-79 35 -79 79c0 45 35 80 79 80s79 -35 79 -80zM200 -223h-126l6 541h114z" />
    <glyph glyph-name="cent" unicode="&#xa2;" horiz-adv-x="444" 
d="M436 32c-17 -8 -30 -14 -39 -18c-41 -17 -90 -27 -132 -27h-15l-16 -81h-62l17 90c-107 31 -165 113 -165 232c0 156 98 251 258 251l13 71h63l-14 -78c43 -11 54 -16 92 -39l-57 -91c-21 17 -27 20 -55 31l-54 -284h8c34 0 65 11 114 40zM262 376
c-67 -10 -112 -69 -112 -147c0 -55 21 -98 60 -124z" />
    <glyph glyph-name="sterling" unicode="&#xa3;" horiz-adv-x="576" 
d="M684 629l-90 -57c-31 55 -41 64 -77 64c-50 0 -67 -27 -111 -177l-82 -277h164l-29 -88h-164l-28 -113c-7 -28 -20 -59 -40 -94c11 1 20 2 25 2s14 -1 26 -2c17 -2 29 -4 36 -6l40 -10l47 -12c11 -3 20 -3 28 -3c23 0 36 13 36 39c0 7 -1 15 -3 24l-6 24l85 19
c13 -34 16 -49 16 -73c0 -89 -56 -136 -162 -136c-28 0 -54 4 -77 9l-69 16c-21 5 -46 8 -72 8c-27 0 -51 -2 -74 -7l-71 -17l-37 -7v94c40 12 55 18 72 27c14 8 26 17 37 28c22 24 32 45 48 102l24 88h-107l27 76l103 12l96 340c27 94 48 135 84 165c32 28 86 45 139 45
c31 0 58 -6 83 -17c31 -14 51 -35 83 -86z" />
    <glyph glyph-name="fraction" unicode="&#x2044;" horiz-adv-x="850" 
d="M750 685l-565 -729h-95l566 729h94z" />
    <glyph glyph-name="yen" unicode="&#xa5;" 
d="M549 660l-189 -324l115 1v-64h-146v-69h146v-67h-146v-137h-126v137h-145v67h145v69h-145v64l117 -1l-173 324h138l132 -258l139 258h138z" />
    <glyph glyph-name="florin" unicode="&#x192;" horiz-adv-x="576" 
d="M627 673l-78 -100c-29 40 -49 55 -72 55c-42 0 -88 -53 -109 -127l-10 -36h102l-18 -68h-103l-113 -431c-33 -127 -125 -212 -229 -212c-21 0 -43 4 -65 11c-31 11 -45 19 -75 47l78 100c29 -40 49 -55 72 -55c20 0 50 18 66 39c18 24 36 70 53 133l100 368h-80l18 68h79
l15 55c21 77 54 129 101 165c38 28 87 46 130 46c21 0 42 -4 63 -11c29 -10 44 -19 75 -47z" />
    <glyph glyph-name="section" unicode="&#xa7;" horiz-adv-x="519" 
d="M476 644l-71 -52c-28 42 -55 56 -104 56c-75 0 -112 -57 -112 -173c0 -51 13 -155 31 -249c33 -176 42 -238 42 -285c0 -7 0 -17 -1 -31l-63 -11c-1 33 -2 45 -7 70c-7 30 -14 56 -32 111c-23 69 -41 127 -54 175c-19 68 -33 163 -33 222c0 161 74 250 209 250
c49 0 83 -5 115 -18c25 -10 44 -26 80 -65zM447 -16c0 -161 -75 -250 -209 -250c-49 0 -83 5 -115 18c-26 10 -45 26 -81 65l72 51c28 -41 54 -55 103 -55c76 0 112 56 112 172c0 51 -12 156 -30 250c-33 175 -43 239 -43 283c0 7 0 17 1 30l64 14c0 -33 1 -45 7 -71
c6 -30 14 -57 32 -111c23 -69 41 -127 54 -174c19 -68 33 -163 33 -222z" />
    <glyph glyph-name="quotesingle" unicode="'" horiz-adv-x="251" 
d="M167 433h-83v227h83v-227z" />
    <glyph glyph-name="quotedblleft" unicode="&#x201c;" horiz-adv-x="437" 
d="M394 377c-38 -19 -53 -23 -84 -23c-54 0 -79 27 -79 84c0 61 32 146 84 222h71c-15 -31 -20 -42 -31 -75s-13 -43 -16 -75zM209 377c-39 -19 -53 -23 -85 -23c-54 0 -78 27 -78 84c0 61 32 146 84 222h71c-15 -31 -20 -42 -31 -75s-13 -43 -16 -75z" />
    <glyph glyph-name="guillemotleft" unicode="&#xab;" horiz-adv-x="560" 
d="M509 31l-245 195l245 195v-119l-100 -76l100 -75v-120zM270 31l-245 195l245 195v-119l-100 -76l100 -75v-120z" />
    <glyph glyph-name="guilsinglleft" unicode="&#x2039;" horiz-adv-x="321" 
d="M270 31l-245 195l245 195v-119l-100 -76l100 -75v-120z" />
    <glyph glyph-name="guilsinglright" unicode="&#x203a;" horiz-adv-x="321" 
d="M295 226l-245 -195v120l101 75l-101 76v119z" />
    <glyph glyph-name="fi" unicode="&#xfb01;" horiz-adv-x="530" 
d="M466 0h-120v377h-145v-377h-119v377h-76v76l76 12v60c0 138 74 217 203 217c27 0 52 -4 75 -10c35 -10 57 -20 105 -53l-56 -94c-49 44 -76 57 -115 57c-30 0 -55 -11 -70 -30c-18 -23 -23 -50 -23 -120v-27h265v-465z" />
    <glyph glyph-name="fl" unicode="&#xfb02;" horiz-adv-x="521" 
d="M462 0h-120v635c-24 7 -34 8 -51 8c-30 0 -52 -10 -67 -31c-18 -26 -23 -50 -23 -120v-27h88v-88h-88v-377h-119v377h-76v76l76 12v60c0 138 74 217 204 217c31 0 47 -2 85 -13h91v-729z" />
    <glyph glyph-name="endash" unicode="&#x2013;" horiz-adv-x="500" 
d="M500 191h-500v83h500v-83z" />
    <glyph glyph-name="dagger" unicode="&#x2020;" horiz-adv-x="573" 
d="M347 660l-25 -142h-70l-26 142h121zM514 372l-158 17v89l158 17v-123zM217 389l-158 -17v123l158 -17v-89zM342 207l-9 -455h-94l-8 455l17 148h77z" />
    <glyph glyph-name="daggerdbl" unicode="&#x2021;" horiz-adv-x="573" 
d="M347 660l-25 -142h-70l-26 142h121zM514 372l-158 17v89l158 17v-123zM217 389l-158 -17v123l158 -17v-89zM342 206l-17 -150h-77l-17 150l17 149h77zM514 -83l-158 16v90l158 17v-123zM217 -67l-158 -16v123l158 -17v-90zM347 -248h-121l26 142h70z" />
    <glyph glyph-name="periodcentered" unicode="&#xb7;" horiz-adv-x="250" 
d="M204 235c0 -45 -35 -80 -79 -80s-79 35 -79 80c0 44 35 79 79 79s79 -35 79 -79z" />
    <glyph glyph-name="paragraph" unicode="&#xb6;" horiz-adv-x="644" 
d="M585 -239h-101v899h-75v-899h-101v478h-44c-45 0 -98 25 -140 66c-51 49 -72 100 -72 176c0 80 22 134 75 183c52 48 102 65 187 65h271v-968z" />
    <glyph glyph-name="bullet" unicode="&#x2022;" horiz-adv-x="352" 
d="M335 231c0 -88 -71 -159 -159 -159s-159 71 -159 159s71 159 159 159s159 -71 159 -159z" />
    <glyph glyph-name="quotesinglbase" unicode="&#x201a;" horiz-adv-x="251" 
d="M204 57c0 -61 -32 -147 -83 -222h-72c16 30 20 41 31 74c11 34 13 43 16 75l-55 134c39 18 53 22 85 22c54 0 78 -26 78 -83z" />
    <glyph glyph-name="quotedblbase" unicode="&#x201e;" horiz-adv-x="437" 
d="M390 57c0 -61 -33 -147 -84 -222h-72c16 30 20 41 31 74c11 34 14 43 16 75l-55 134c39 18 53 22 85 22c54 0 79 -26 79 -83zM204 57c0 -61 -32 -147 -83 -222h-72c16 30 20 41 31 74c11 34 13 43 16 75l-55 134c39 18 53 22 85 22c54 0 78 -26 78 -83z" />
    <glyph glyph-name="quotedblright" unicode="&#x201d;" horiz-adv-x="437" 
d="M391 597c0 -61 -32 -146 -84 -222h-71c15 31 20 41 31 75c11 33 13 43 16 74l-55 134c38 19 53 23 84 23c54 0 79 -27 79 -84zM206 597c0 -61 -33 -146 -84 -222h-72c16 31 19 41 31 75c11 33 14 43 16 74l-55 134c39 19 53 23 85 23c54 0 79 -27 79 -84z" />
    <glyph glyph-name="guillemotright" unicode="&#xbb;" horiz-adv-x="560" 
d="M534 226l-245 -195v120l101 75l-101 76v119zM295 226l-245 -195v120l101 75l-101 76v119z" />
    <glyph glyph-name="ellipsis" unicode="&#x2026;" horiz-adv-x="750" 
d="M714 71c0 -45 -40 -82 -89 -82c-39 0 -70 36 -70 79c0 45 39 81 87 81c40 0 72 -35 72 -78zM462 71c0 -45 -40 -82 -89 -82c-39 0 -70 36 -70 79c0 45 39 81 87 81c40 0 72 -35 72 -78zM203 70c0 -45 -40 -82 -89 -82c-38 0 -70 36 -70 79c0 45 39 82 88 82
c39 0 71 -36 71 -79z" />
    <glyph glyph-name="perthousand" unicode="&#x2030;" horiz-adv-x="1234" 
d="M1199 162c0 -96 -78 -175 -175 -175s-175 79 -175 175c0 97 78 175 175 175s175 -78 175 -175zM816 162c0 -96 -79 -175 -175 -175c-97 0 -175 79 -175 175c0 97 78 175 175 175c96 0 175 -78 175 -175zM750 685l-565 -729h-95l566 729h94zM384 495
c0 -97 -78 -175 -175 -175c-96 0 -175 78 -175 175s79 176 175 176c97 0 175 -79 175 -176zM1122 162c0 55 -44 98 -98 98s-98 -43 -98 -98c0 -54 44 -98 98 -98s98 44 98 98zM739 162c0 55 -44 98 -98 98c-55 0 -98 -43 -98 -98c0 -54 43 -98 98 -98c54 0 98 44 98 98z
M307 495c0 54 -43 98 -98 98c-54 0 -98 -44 -98 -98s44 -98 98 -98c55 0 98 44 98 98z" />
    <glyph glyph-name="questiondown" unicode="&#xbf;" horiz-adv-x="418" 
d="M373 451c0 -44 -35 -80 -79 -80s-79 36 -79 80s35 80 79 80s79 -36 79 -80zM382 -118l-25 -113c-79 9 -111 18 -157 45c-88 53 -143 149 -143 251c0 50 18 93 51 121c24 20 50 27 98 27h25v95h120v-193h-164c-5 -26 -7 -41 -7 -60c0 -98 73 -160 202 -173z" />
    <glyph glyph-name="grave" unicode="`" horiz-adv-x="383" 
d="M317 517h-80l-113 164h99z" />
    <glyph glyph-name="acute" unicode="&#xb4;" horiz-adv-x="383" 
d="M417 681l-113 -164h-81l95 164h99z" />
    <glyph glyph-name="circumflex" unicode="&#x2c6;" horiz-adv-x="384" 
d="M345 516h-87l-65 91l-65 -91h-86l111 164h80z" />
    <glyph glyph-name="tilde" unicode="&#x2dc;" horiz-adv-x="454" 
d="M423 566c-23 -22 -33 -29 -59 -40c-25 -10 -49 -16 -70 -16c-25 0 -54 9 -87 27c-31 17 -38 19 -56 19c-21 0 -33 -4 -62 -22c-3 -2 -8 -5 -15 -9l-33 57c33 21 43 27 60 35c21 9 43 15 63 15c4 0 8 -1 11 -1c23 -2 27 -4 79 -33c22 -12 35 -16 52 -16c27 0 40 6 84 37z
" />
    <glyph glyph-name="macron" unicode="&#xaf;" horiz-adv-x="406" 
d="M341 539h-273v63h273v-63z" />
    <glyph glyph-name="breve" unicode="&#x2d8;" horiz-adv-x="352" 
d="M336 660c-13 -61 -23 -84 -49 -116c-27 -33 -70 -54 -111 -54s-82 21 -111 54c-25 30 -36 54 -49 116h63c17 -71 49 -107 97 -107s80 36 97 107h63z" />
    <glyph glyph-name="dotaccent" unicode="&#x2d9;" horiz-adv-x="234" 
d="M169 572c0 -27 -23 -50 -50 -50c-28 0 -51 23 -51 50c0 28 23 51 51 51c27 0 50 -23 50 -51z" />
    <glyph glyph-name="dieresis" unicode="&#xa8;" horiz-adv-x="416" 
d="M341 567c0 -32 -26 -57 -58 -57c-31 0 -57 25 -57 57s26 57 57 57c32 0 58 -25 58 -57zM180 567c0 -32 -25 -57 -57 -57s-57 25 -57 57s25 57 57 57s57 -25 57 -57z" />
    <glyph glyph-name="ring" unicode="&#x2da;" horiz-adv-x="243" 
d="M218 574c0 -53 -43 -96 -96 -96c-54 0 -97 43 -97 96s43 97 97 97c53 0 96 -44 96 -97zM163 574c0 23 -19 42 -41 42c-23 0 -42 -19 -42 -42s19 -41 42 -41c22 0 41 18 41 41z" />
    <glyph glyph-name="cedilla" unicode="&#xb8;" horiz-adv-x="444" 
d="M334 -145c0 -53 -40 -91 -95 -91c-26 0 -42 3 -99 22l25 51c37 -16 57 -22 77 -22c23 0 40 16 40 37c0 30 -19 41 -66 41h-32l57 94h50l-31 -56c47 0 74 -27 74 -76z" />
    <glyph glyph-name="hungarumlaut" unicode="&#x2dd;" horiz-adv-x="383" 
d="M365 660l-113 -163h-69l94 163h88zM228 660l-113 -163h-70l95 163h88z" />
    <glyph glyph-name="ogonek" unicode="&#x2db;" horiz-adv-x="252" 
d="M171 -177c-16 -11 -27 -15 -45 -15c-29 0 -44 17 -44 50c0 34 12 65 42 122l10 19h34c-7 -18 -10 -24 -17 -44c-7 -22 -9 -28 -13 -49z" />
    <glyph glyph-name="caron" unicode="&#x2c7;" horiz-adv-x="338" 
d="M312 652l-112 -164h-63l-114 164h70l76 -107l75 107h68z" />
    <glyph glyph-name="emdash" unicode="&#x2014;" horiz-adv-x="1000" 
d="M1000 191h-1000v83h1000v-83z" />
    <glyph glyph-name="AE" unicode="&#xc6;" horiz-adv-x="794" 
d="M760 0h-399v157h-174l-71 -157h-132l315 660h449v-107h-267v-163h216v-107h-216v-176h279v-107zM361 264v285l-128 -285h128z" />
    <glyph glyph-name="ordfeminine" unicode="&#xaa;" horiz-adv-x="361" 
d="M340 425l-16 -74h-24c-40 0 -57 6 -72 30c-29 -24 -56 -34 -89 -34c-59 0 -102 37 -102 91c0 12 2 23 6 34c12 32 35 48 83 62l87 24v20c0 32 -10 42 -32 42c-24 0 -38 -12 -38 -21v-1c1 -1 1 -3 4 -12l-94 -20c-6 16 -7 20 -7 30c0 61 57 94 146 94
c81 0 120 -34 120 -107v-130c0 -22 2 -26 28 -28zM213 443v48l-70 -22c-3 -10 -4 -14 -4 -21c0 -16 9 -25 26 -25c18 0 34 10 48 20z" />
    <glyph glyph-name="Lslash" unicode="&#x141;" horiz-adv-x="495" 
d="M486 0h-396v276l-84 -49l-43 74l127 74v285h126v-212l83 47l43 -74l-126 -73v-241h270v-107z" />
    <glyph glyph-name="Oslash" unicode="&#xd8;" horiz-adv-x="763" 
d="M732 330c0 -201 -145 -343 -350 -343c-82 0 -157 24 -227 73l-70 -72l-57 53l75 69c-52 75 -72 136 -72 219c0 204 142 343 349 343c96 0 169 -23 228 -71l66 65l58 -52l-71 -68c47 -61 71 -134 71 -216zM517 513c-45 39 -85 55 -137 55c-123 0 -215 -101 -215 -236
c0 -53 10 -92 32 -128zM598 329c0 52 -8 85 -31 126l-320 -310c41 -35 87 -53 137 -53c121 0 214 102 214 237z" />
    <glyph glyph-name="OE" unicode="&#x152;" horiz-adv-x="918" 
d="M884 0h-400c-48 -10 -67 -13 -103 -13c-205 0 -350 142 -350 343c-1 204 142 342 352 342c41 0 58 -2 101 -12h387v-107h-261v-163h211v-107h-211v-176h274v-107zM480 116v428c-44 18 -63 22 -98 22c-125 0 -217 -100 -217 -237s92 -236 218 -236c36 0 54 5 97 23z" />
    <glyph glyph-name="ordmasculine" unicode="&#xba;" horiz-adv-x="361" 
d="M352 518c0 -97 -74 -172 -171 -172c-98 0 -172 75 -172 172s74 172 172 172c97 0 171 -75 171 -172zM250 518c0 53 -34 94 -69 94c-36 0 -70 -41 -70 -94c0 -54 34 -94 70 -94c35 0 69 40 69 94z" />
    <glyph glyph-name="ae" unicode="&#xe6;" horiz-adv-x="739" 
d="M717 44c-21 -13 -36 -23 -47 -28c-41 -20 -99 -33 -154 -33c-82 0 -139 23 -185 74c-33 -24 -46 -33 -66 -43c-32 -15 -68 -25 -96 -25c-78 0 -134 53 -134 126c0 69 39 111 119 130l133 32v50c0 47 -19 71 -57 71c-36 0 -65 -20 -65 -43c0 -3 0 -5 2 -9l-113 -25
c-5 12 -6 17 -6 29c0 81 73 129 193 129c35 0 64 -5 89 -15c24 -10 34 -18 51 -43c50 40 85 53 143 53c118 0 193 -82 193 -210v-50h-308c0 -42 4 -60 17 -80c20 -32 64 -54 107 -54c17 0 35 2 54 8c30 9 47 17 86 44zM596 307c0 47 -32 77 -80 77c-52 0 -92 -36 -103 -95
h182c1 6 1 12 1 18zM287 119v82l-119 -31c-6 -20 -8 -29 -8 -42c0 -28 18 -46 48 -46c27 0 56 14 79 37z" />
    <glyph glyph-name="dotlessi" unicode="&#x131;" horiz-adv-x="247" 
d="M183 0h-119v465h119v-465z" />
    <glyph glyph-name="lslash" unicode="&#x142;" horiz-adv-x="239" 
d="M280 422l-101 -60v-362h-119v291l-56 -32l-43 74l99 58v338h119v-267l58 34z" />
    <glyph glyph-name="oslash" unicode="&#xf8;" horiz-adv-x="533" 
d="M542 456l-78 -77c32 -51 45 -94 45 -146c0 -60 -23 -123 -61 -169c-44 -53 -102 -77 -184 -77c-64 0 -108 14 -154 51l-71 -69l-51 45l78 75c-27 45 -42 95 -42 144c0 59 23 122 62 169c43 52 101 76 183 76c63 0 111 -15 150 -48l70 69zM339 352c-19 20 -45 31 -73 31
c-63 0 -118 -66 -118 -143v-7l6 -48c0 -4 2 -9 3 -9zM385 233c0 24 -2 34 -10 60l-184 -178c20 -21 48 -33 76 -33c66 0 118 66 118 151z" />
    <glyph glyph-name="oe" unicode="&#x153;" horiz-adv-x="835" 
d="M809 44c-22 -12 -39 -20 -51 -25c-49 -23 -99 -33 -153 -33c-73 0 -123 20 -167 65c-42 -43 -96 -64 -171 -64c-78 0 -135 24 -180 77c-38 45 -61 109 -61 169c0 59 22 122 61 169c44 52 102 76 182 76c81 0 144 -27 178 -77c42 53 91 76 163 76c118 0 199 -87 199 -213
v-50h-308c0 -39 4 -55 15 -75c20 -35 61 -57 104 -57c18 0 36 2 55 8c32 9 50 19 90 48zM689 289c-6 72 -28 98 -84 98c-53 0 -90 -37 -98 -98h182zM386 233c0 82 -50 142 -118 142s-118 -60 -118 -142s50 -142 118 -142s118 60 118 142z" />
    <glyph glyph-name="germandbls" unicode="&#xdf;" horiz-adv-x="576" 
d="M569 123c0 -82 -70 -136 -178 -136c-19 0 -37 2 -54 5c-34 7 -51 14 -89 39l32 82c54 -31 83 -42 116 -42c38 0 67 20 67 47c0 21 -15 38 -53 59c-52 30 -84 50 -105 66c-29 24 -45 55 -45 89c0 50 26 90 96 147c50 40 66 63 66 96c0 41 -42 71 -100 71
c-76 0 -112 -44 -112 -137v-509h-119v377h-88v76l88 12v63c0 132 89 212 235 212c134 0 210 -58 210 -160c0 -58 -22 -97 -89 -156c-69 -60 -75 -67 -75 -87c0 -16 9 -26 41 -46l58 -37c26 -16 45 -30 59 -41c24 -21 39 -55 39 -90z" />
    <glyph glyph-name="Euro" unicode="&#x20ac;" 
d="M561 609l-48 -100c-43 31 -94 46 -152 46c-62 0 -130 -49 -161 -126h301v-67h-317c-1 -7 -1 -15 -1 -22c0 -15 1 -30 3 -44h315v-67h-297c32 -78 98 -124 177 -124c47 0 86 8 145 31l23 -106c-68 -31 -120 -43 -195 -43c-143 0 -262 88 -298 242h-68l-1 55l58 10
c-1 13 -1 26 -1 39c0 10 0 19 1 29h-57l-1 55l69 12c39 150 168 243 298 243c84 0 150 -20 207 -63z" />
    <glyph glyph-name="Ydieresis" unicode="&#x178;" 
d="M422 732c0 -31 -25 -55 -55 -55s-54 24 -54 55c0 30 24 54 54 54s55 -24 55 -54zM236 731c0 -30 -24 -55 -54 -55s-55 25 -55 55s25 54 55 54s54 -24 54 -54zM549 660l-220 -377v-283h-126v283l-201 377h138l132 -258l139 258h138z" />
    <glyph glyph-name="trademark" unicode="&#x2122;" horiz-adv-x="863" 
d="M819 339h-101v214h-6l-6 -44l-76 -170h-88l-69 177l-6 44h-6v-221h-88v321h144l63 -195l6 -25h7l6 25l69 195h151v-321zM322 585h-88v-246h-100v246h-88v75h276v-75z" />
    <glyph glyph-name="zcaron" unicode="&#x17e;" horiz-adv-x="431" 
d="M366 676l-112 -164h-63l-114 164h70l76 -107l75 107h68zM404 0h-377v88l226 283h-226v94h377v-75l-239 -296h239v-94z" />
    <glyph glyph-name="Zcaron" unicode="&#x17d;" horiz-adv-x="595" 
d="M460 819l-112 -117h-79l-112 117h87l65 -65l65 65h86zM564 0h-528v82l358 471h-352v107h522v-82l-352 -471h352v-107z" />
    <glyph glyph-name="scaron" unicode="&#x161;" horiz-adv-x="447" 
d="M373 690l-112 -164h-63l-114 164h70l76 -107l75 107h68zM411 433l-38 -97c-12 8 -23 15 -32 20c-33 20 -73 32 -107 32c-46 0 -76 -18 -76 -44c0 -21 16 -34 58 -49c52 -18 119 -49 140 -64c29 -21 48 -62 48 -103c0 -85 -74 -141 -186 -141c-23 0 -48 3 -76 9
c-43 9 -64 17 -115 43l38 97c47 -29 66 -38 100 -49c18 -6 35 -9 52 -9c46 0 73 15 73 40c0 21 -15 37 -47 49l-80 31c-82 32 -120 75 -120 137c0 87 76 146 189 146c22 0 48 -3 77 -9c44 -9 60 -15 102 -39z" />
    <glyph glyph-name="Scaron" unicode="&#x160;" horiz-adv-x="534" 
d="M440 819l-112 -117h-79l-112 117h87l65 -65l65 65h86zM505 616l-50 -113c-70 31 -127 47 -171 47c-59 0 -97 -24 -97 -61c0 -28 16 -45 63 -70c101 -54 167 -96 198 -127c28 -28 45 -72 45 -118c0 -118 -86 -187 -232 -187c-96 0 -154 29 -240 70l53 116
c59 -32 120 -65 189 -65c58 0 96 26 96 66c0 28 -15 47 -58 71l-102 58c-117 67 -153 111 -153 183c0 135 126 185 241 185c85 0 143 -19 218 -55z" />
    <glyph glyph-name="ydieresis" unicode="&#xff;" horiz-adv-x="433" 
d="M383 567c0 -32 -25 -57 -57 -57s-57 25 -57 57s25 57 57 57s57 -25 57 -57zM190 568c0 -32 -25 -57 -57 -57s-57 25 -57 57s25 57 57 57s57 -25 57 -57zM428 465l-156 -440c-23 -66 -41 -102 -75 -159c-29 -48 -42 -67 -82 -117l-98 64c44 47 60 67 86 107
c30 47 45 76 71 151l-171 394h130l82 -207l12 -56l13 56l70 207h118z" />
    <glyph glyph-name="thorn" unicode="&#xfe;" horiz-adv-x="538" 
d="M505 246c0 -147 -99 -260 -226 -260c-12 0 -25 1 -37 3c-28 5 -38 10 -61 30v-252h-120l-1 962h119v-330c16 21 31 41 53 56c23 15 50 23 80 23c112 0 193 -98 193 -232zM380 238c0 84 -40 143 -96 143c-40 0 -76 -24 -105 -73v-119v-36c0 -33 8 -45 28 -56
c16 -8 39 -14 59 -14c64 0 114 68 114 155z" />
    <glyph glyph-name="yacute" unicode="&#xfd;" horiz-adv-x="433" 
d="M370 681l-92 -165h-88l76 165h104zM428 465l-156 -440c-23 -66 -41 -102 -75 -159c-29 -48 -42 -67 -82 -117l-98 64c44 47 60 67 86 107c30 47 45 76 71 151l-171 394h130l82 -207l12 -56l13 56l70 207h118z" />
    <glyph glyph-name="udieresis" unicode="&#xfc;" horiz-adv-x="545" 
d="M429 566c0 -32 -26 -57 -58 -57c-31 0 -57 25 -57 57s26 57 57 57c32 0 58 -25 58 -57zM233 564c0 -31 -26 -57 -57 -57c-32 0 -58 26 -58 57c0 32 26 58 58 58c31 0 57 -26 57 -58zM474 0h-120v78c-56 -62 -102 -86 -161 -86c-84 0 -126 43 -126 131v342h120v-299
c0 -57 10 -79 38 -79c26 0 61 26 113 81l16 17v280h120v-465z" />
    <glyph glyph-name="ucircumflex" unicode="&#xfb;" horiz-adv-x="545" 
d="M426 516h-86l-65 91l-65 -91h-87l112 164h80zM474 0h-120v78c-56 -62 -102 -86 -161 -86c-84 0 -126 43 -126 131v342h120v-299c0 -57 10 -79 38 -79c26 0 61 26 113 81l16 17v280h120v-465z" />
    <glyph glyph-name="uacute" unicode="&#xfa;" horiz-adv-x="545" 
d="M421 681l-114 -164h-80l94 164h100zM474 0h-120v78c-56 -62 -102 -86 -161 -86c-84 0 -126 43 -126 131v342h120v-299c0 -57 10 -79 38 -79c26 0 61 26 113 81l16 17v280h120v-465z" />
    <glyph glyph-name="ugrave" unicode="&#xf9;" horiz-adv-x="545" 
d="M326 517h-81l-113 164h99zM474 0h-120v78c-56 -62 -102 -86 -161 -86c-84 0 -126 43 -126 131v342h120v-299c0 -57 10 -79 38 -79c26 0 61 26 113 81l16 17v280h120v-465z" />
    <glyph glyph-name="divide" unicode="&#xf7;" 
d="M344 427c0 -37 -30 -67 -67 -67s-67 30 -67 67s30 67 67 67s67 -30 67 -67zM525 196h-500v82h500v-82zM343 48c0 -37 -30 -67 -67 -67s-67 30 -67 67s30 67 67 67s67 -30 67 -67z" />
    <glyph glyph-name="odieresis" unicode="&#xf6;" horiz-adv-x="516" 
d="M399 567c0 -32 -26 -57 -57 -57c-32 0 -58 25 -58 57s26 57 58 57c31 0 57 -25 57 -57zM239 567c0 -32 -26 -57 -57 -57c-32 0 -58 25 -58 57s26 57 58 57c31 0 57 -25 57 -57zM492 233c0 -140 -101 -246 -234 -246s-234 106 -234 246c0 139 101 245 234 245
s234 -106 234 -245zM368 233c0 82 -50 150 -110 150s-110 -68 -110 -150c0 -83 50 -151 110 -151s110 68 110 151z" />
    <glyph glyph-name="otilde" unicode="&#xf5;" horiz-adv-x="516" 
d="M452 566c-23 -22 -33 -29 -59 -40c-25 -10 -49 -16 -70 -16c-25 0 -54 9 -87 27c-31 17 -38 19 -56 19c-21 0 -33 -4 -62 -22c-3 -2 -8 -5 -15 -9l-33 57c33 21 43 27 60 35c21 9 43 15 63 15c4 0 8 -1 11 -1c23 -2 27 -4 79 -33c22 -12 35 -16 52 -16c27 0 40 6 84 37z
M492 233c0 -140 -101 -246 -234 -246s-234 106 -234 246c0 139 101 245 234 245s234 -106 234 -245zM368 233c0 82 -50 150 -110 150s-110 -68 -110 -150c0 -83 50 -151 110 -151s110 68 110 151z" />
    <glyph glyph-name="ocircumflex" unicode="&#xf4;" horiz-adv-x="516" 
d="M414 516h-87l-65 91l-65 -91h-87l112 164h80zM492 233c0 -140 -101 -246 -234 -246s-234 106 -234 246c0 139 101 245 234 245s234 -106 234 -245zM368 233c0 82 -50 150 -110 150s-110 -68 -110 -150c0 -83 50 -151 110 -151s110 68 110 151z" />
    <glyph glyph-name="oacute" unicode="&#xf3;" horiz-adv-x="516" 
d="M404 681l-113 -164h-80l94 164h99zM492 233c0 -140 -101 -246 -234 -246s-234 106 -234 246c0 139 101 245 234 245s234 -106 234 -245zM368 233c0 82 -50 150 -110 150s-110 -68 -110 -150c0 -83 50 -151 110 -151s110 68 110 151z" />
    <glyph glyph-name="ograve" unicode="&#xf2;" horiz-adv-x="516" 
d="M310 517h-80l-113 164h99zM492 233c0 -140 -101 -246 -234 -246s-234 106 -234 246c0 139 101 245 234 245s234 -106 234 -245zM368 233c0 82 -50 150 -110 150s-110 -68 -110 -150c0 -83 50 -151 110 -151s110 68 110 151z" />
    <glyph glyph-name="ntilde" unicode="&#xf1;" horiz-adv-x="545" 
d="M467 569c-23 -22 -33 -29 -59 -40c-25 -10 -49 -16 -70 -16c-25 0 -54 9 -87 27c-31 17 -38 19 -56 19c-21 0 -33 -4 -62 -22c-3 -2 -8 -5 -15 -9l-33 57c33 21 43 27 60 35c21 9 43 15 63 15c4 0 8 -1 11 -1c23 -2 27 -4 79 -33c22 -12 35 -16 52 -16c27 0 40 6 84 37z
M478 0h-120v299c0 58 -10 79 -39 79c-25 0 -60 -25 -112 -81l-16 -17v-280h-120v465h120v-77c56 61 102 86 161 86c84 0 126 -44 126 -132v-342z" />
    <glyph glyph-name="eth" unicode="&#xf0;" horiz-adv-x="544" 
d="M517 281c0 -183 -96 -303 -241 -303c-139 0 -238 102 -238 245c0 120 74 204 181 204c31 0 64 -6 98 -16c29 -9 42 -15 74 -34c-12 63 -22 94 -46 125l-81 -46l-43 74l59 34c-30 18 -67 25 -123 25c-29 0 -40 -1 -68 -4v100c42 3 58 4 78 4c91 0 163 -15 221 -63l83 47
l43 -74l-68 -39c51 -77 71 -178 71 -279zM403 277c-39 22 -57 30 -89 38c-21 6 -44 9 -57 9c-58 0 -97 -43 -97 -107c0 -78 46 -136 110 -136c35 0 69 19 91 50c26 36 34 64 42 146z" />
    <glyph glyph-name="idieresis" unicode="&#xef;" horiz-adv-x="247" 
d="M266 567c0 -32 -25 -57 -57 -57s-57 25 -57 57s25 57 57 57s57 -25 57 -57zM111 567c0 -32 -26 -57 -58 -57c-31 0 -57 25 -57 57s26 57 57 57c32 0 58 -25 58 -57zM183 0h-119v465h119v-465z" />
    <glyph glyph-name="icircumflex" unicode="&#xee;" horiz-adv-x="247" 
d="M282 516h-87l-65 91l-65 -91h-86l112 164h79zM183 0h-119v465h119v-465z" />
    <glyph glyph-name="iacute" unicode="&#xed;" horiz-adv-x="247" 
d="M268 681l-113 -164h-80l94 164h99zM183 0h-119v465h119v-465z" />
    <glyph glyph-name="igrave" unicode="&#xec;" horiz-adv-x="247" 
d="M185 517h-80l-113 164h99zM183 0h-119v465h119v-465z" />
    <glyph glyph-name="edieresis" unicode="&#xeb;" horiz-adv-x="468" 
d="M397 567c0 -32 -25 -57 -57 -57s-57 25 -57 57s25 57 57 57s57 -25 57 -57zM232 567c0 -32 -25 -57 -57 -57s-57 25 -57 57s25 57 57 57s57 -25 57 -57zM451 45c-22 -12 -39 -20 -50 -25c-49 -22 -99 -33 -153 -33c-138 0 -225 91 -225 233c0 147 100 258 233 258
c115 0 195 -87 195 -213v-51h-308c2 -39 5 -55 16 -74c20 -34 60 -56 104 -56c18 0 36 2 55 8c28 8 46 17 89 44zM331 289c-3 71 -27 99 -83 99c-53 0 -89 -36 -99 -99h182z" />
    <glyph glyph-name="ecircumflex" unicode="&#xea;" horiz-adv-x="468" 
d="M413 516h-87l-65 91l-65 -91h-87l112 164h80zM451 45c-22 -12 -39 -20 -50 -25c-49 -22 -99 -33 -153 -33c-138 0 -225 91 -225 233c0 147 100 258 233 258c115 0 195 -87 195 -213v-51h-308c2 -39 5 -55 16 -74c20 -34 60 -56 104 -56c18 0 36 2 55 8c28 8 46 17 89 44z
M331 289c-3 71 -27 99 -83 99c-53 0 -89 -36 -99 -99h182z" />
    <glyph glyph-name="eacute" unicode="&#xe9;" horiz-adv-x="468" 
d="M400 681l-113 -164h-80l94 164h99zM451 45c-22 -12 -39 -20 -50 -25c-49 -22 -99 -33 -153 -33c-138 0 -225 91 -225 233c0 147 100 258 233 258c115 0 195 -87 195 -213v-51h-308c2 -39 5 -55 16 -74c20 -34 60 -56 104 -56c18 0 36 2 55 8c28 8 46 17 89 44zM331 289
c-3 71 -27 99 -83 99c-53 0 -89 -36 -99 -99h182z" />
    <glyph glyph-name="egrave" unicode="&#xe8;" horiz-adv-x="468" 
d="M317 517h-80l-113 164h99zM451 45c-22 -12 -39 -20 -50 -25c-49 -22 -99 -33 -153 -33c-138 0 -225 91 -225 233c0 147 100 258 233 258c115 0 195 -87 195 -213v-51h-308c2 -39 5 -55 16 -74c20 -34 60 -56 104 -56c18 0 36 2 55 8c28 8 46 17 89 44zM331 289
c-3 71 -27 99 -83 99c-53 0 -89 -36 -99 -99h182z" />
    <glyph glyph-name="ccedilla" unicode="&#xe7;" horiz-adv-x="444" 
d="M436 32c-60 -29 -80 -35 -143 -44l-33 -57c53 0 84 -28 84 -75c0 -55 -47 -100 -103 -100c-29 0 -61 7 -104 24l22 57c31 -14 54 -20 72 -20c22 0 38 16 38 37c0 28 -15 39 -53 39h-42l59 94c-73 12 -102 25 -141 62c-45 44 -68 105 -68 179c0 150 99 251 247 251
c26 0 51 -3 76 -8c34 -8 50 -15 89 -38l-57 -91c-35 27 -58 36 -94 36c-79 0 -135 -62 -135 -149c0 -83 50 -140 122 -140c40 0 69 10 120 40z" />
    <glyph glyph-name="aring" unicode="&#xe5;" horiz-adv-x="476" 
d="M336 591c0 -53 -43 -96 -96 -96c-54 0 -97 43 -97 96s43 97 97 97c53 0 96 -44 96 -97zM444 84l-19 -90h-25c-60 0 -79 10 -100 51c-44 -40 -83 -57 -130 -57c-79 0 -135 52 -135 126c0 16 3 32 8 47c16 43 44 65 112 85l132 38v39c0 50 -18 73 -57 73
c-36 0 -65 -19 -65 -42c0 -4 1 -6 3 -12l-114 -25c-5 14 -6 19 -6 32c0 82 72 129 198 129c111 0 161 -46 161 -148v-194c0 -42 5 -49 37 -52zM281 591c0 23 -19 42 -41 42c-23 0 -42 -19 -42 -42s19 -41 42 -41c22 0 41 18 41 41zM287 116v91l-119 -39
c-7 -18 -9 -27 -9 -39c0 -30 18 -48 48 -48c15 0 33 5 49 14c8 4 14 8 31 21z" />
    <glyph glyph-name="adieresis" unicode="&#xe4;" horiz-adv-x="476" 
d="M375 570c0 -32 -25 -57 -57 -57s-57 25 -57 57s25 57 57 57s57 -25 57 -57zM215 570c0 -32 -26 -58 -57 -58c-32 0 -58 26 -58 58c0 31 26 57 58 57c31 0 57 -26 57 -57zM444 84l-19 -90h-25c-60 0 -79 10 -100 51c-44 -40 -83 -57 -130 -57c-79 0 -135 52 -135 126
c0 16 3 32 8 47c16 43 44 65 112 85l132 38v39c0 50 -18 73 -57 73c-36 0 -65 -19 -65 -42c0 -4 1 -6 3 -12l-114 -25c-5 14 -6 19 -6 32c0 82 72 129 198 129c111 0 161 -46 161 -148v-194c0 -42 5 -49 37 -52zM287 116v91l-119 -39c-7 -18 -9 -27 -9 -39
c0 -30 18 -48 48 -48c15 0 33 5 49 14c8 4 14 8 31 21z" />
    <glyph glyph-name="atilde" unicode="&#xe3;" horiz-adv-x="476" 
d="M429 566c-23 -22 -33 -29 -59 -40c-25 -10 -49 -16 -70 -16c-25 0 -54 9 -87 27c-31 17 -38 19 -56 19c-21 0 -33 -4 -62 -22c-3 -2 -8 -5 -15 -9l-33 57c33 21 43 27 60 35c21 9 43 15 63 15c4 0 8 -1 11 -1c23 -2 27 -4 79 -33c22 -12 35 -16 52 -16c27 0 40 6 84 37z
M444 84l-19 -90h-25c-60 0 -79 10 -100 51c-44 -40 -83 -57 -130 -57c-79 0 -135 52 -135 126c0 16 3 32 8 47c16 43 44 65 112 85l132 38v39c0 50 -18 73 -57 73c-36 0 -65 -19 -65 -42c0 -4 1 -6 3 -12l-114 -25c-5 14 -6 19 -6 32c0 82 72 129 198 129
c111 0 161 -46 161 -148v-194c0 -42 5 -49 37 -52zM287 116v91l-119 -39c-7 -18 -9 -27 -9 -39c0 -30 18 -48 48 -48c15 0 33 5 49 14c8 4 14 8 31 21z" />
    <glyph glyph-name="acircumflex" unicode="&#xe2;" horiz-adv-x="476" 
d="M398 516h-87l-65 91l-65 -91h-87l112 164h80zM444 84l-19 -90h-25c-60 0 -79 10 -100 51c-44 -40 -83 -57 -130 -57c-79 0 -135 52 -135 126c0 16 3 32 8 47c16 43 44 65 112 85l132 38v39c0 50 -18 73 -57 73c-36 0 -65 -19 -65 -42c0 -4 1 -6 3 -12l-114 -25
c-5 14 -6 19 -6 32c0 82 72 129 198 129c111 0 161 -46 161 -148v-194c0 -42 5 -49 37 -52zM287 116v91l-119 -39c-7 -18 -9 -27 -9 -39c0 -30 18 -48 48 -48c15 0 33 5 49 14c8 4 14 8 31 21z" />
    <glyph glyph-name="aacute" unicode="&#xe1;" horiz-adv-x="476" 
d="M392 681l-113 -164h-80l94 164h99zM444 84l-19 -90h-25c-60 0 -79 10 -100 51c-44 -40 -83 -57 -130 -57c-79 0 -135 52 -135 126c0 16 3 32 8 47c16 43 44 65 112 85l132 38v39c0 50 -18 73 -57 73c-36 0 -65 -19 -65 -42c0 -4 1 -6 3 -12l-114 -25c-5 14 -6 19 -6 32
c0 82 72 129 198 129c111 0 161 -46 161 -148v-194c0 -42 5 -49 37 -52zM287 116v91l-119 -39c-7 -18 -9 -27 -9 -39c0 -30 18 -48 48 -48c15 0 33 5 49 14c8 4 14 8 31 21z" />
    <glyph glyph-name="agrave" unicode="&#xe0;" horiz-adv-x="476" 
d="M297 517h-80l-113 164h99zM444 84l-19 -90h-25c-60 0 -79 10 -100 51c-44 -40 -83 -57 -130 -57c-79 0 -135 52 -135 126c0 16 3 32 8 47c16 43 44 65 112 85l132 38v39c0 50 -18 73 -57 73c-36 0 -65 -19 -65 -42c0 -4 1 -6 3 -12l-114 -25c-5 14 -6 19 -6 32
c0 82 72 129 198 129c111 0 161 -46 161 -148v-194c0 -42 5 -49 37 -52zM287 116v91l-119 -39c-7 -18 -9 -27 -9 -39c0 -30 18 -48 48 -48c15 0 33 5 49 14c8 4 14 8 31 21z" />
    <glyph glyph-name="Thorn" unicode="&#xde;" horiz-adv-x="556" 
d="M547 356c0 -73 -26 -136 -75 -178c-47 -40 -105 -57 -195 -57c-25 0 -39 1 -61 3v-124h-126v660h126v-102h100c86 0 134 -15 175 -54c37 -37 56 -87 56 -148zM417 346c0 72 -35 105 -113 105h-88v-220c20 -1 40 -2 60 -2c98 0 141 36 141 117z" />
    <glyph glyph-name="Yacute" unicode="&#xdd;" 
d="M431 808l-113 -118h-93l95 118h111zM549 660l-220 -377v-283h-126v283l-201 377h138l132 -258l139 258h138z" />
    <glyph glyph-name="Udieresis" unicode="&#xdc;" horiz-adv-x="700" 
d="M502 727c0 -30 -25 -54 -55 -54s-54 24 -54 54c0 31 24 55 54 55s55 -24 55 -55zM298 728c0 -30 -24 -54 -55 -54c-30 0 -54 24 -54 54s24 55 54 55c31 0 55 -25 55 -55zM627 258c0 -121 -22 -175 -91 -223c-48 -33 -104 -48 -186 -48c-83 0 -137 14 -187 48
c-68 47 -90 102 -90 223v402h125v-409c0 -98 51 -147 156 -147c96 0 147 52 147 147v409h126v-402z" />
    <glyph glyph-name="Ucircumflex" unicode="&#xdb;" horiz-adv-x="700" 
d="M505 691h-87l-65 65l-65 -65h-86l112 117h79zM627 258c0 -121 -22 -175 -91 -223c-48 -33 -104 -48 -186 -48c-83 0 -137 14 -187 48c-68 47 -90 102 -90 223v402h125v-409c0 -98 51 -147 156 -147c96 0 147 52 147 147v409h126v-402z" />
    <glyph glyph-name="Uacute" unicode="&#xda;" horiz-adv-x="700" 
d="M499 808l-113 -118h-93l95 118h111zM627 258c0 -121 -22 -175 -91 -223c-48 -33 -104 -48 -186 -48c-83 0 -137 14 -187 48c-68 47 -90 102 -90 223v402h125v-409c0 -98 51 -147 156 -147c96 0 147 52 147 147v409h126v-402z" />
    <glyph glyph-name="Ugrave" unicode="&#xd9;" horiz-adv-x="700" 
d="M407 690h-93l-113 118h111zM627 258c0 -121 -22 -175 -91 -223c-48 -33 -104 -48 -186 -48c-83 0 -137 14 -187 48c-68 47 -90 102 -90 223v402h125v-409c0 -98 51 -147 156 -147c96 0 147 52 147 147v409h126v-402z" />
    <glyph glyph-name="multiply" unicode="&#xd7;" 
d="M519 40l-58 -58l-186 186l-186 -186l-58 58l186 186l-186 186l58 58l186 -186l186 186l58 -58l-186 -186z" />
    <glyph glyph-name="Odieresis" unicode="&#xd6;" horiz-adv-x="763" 
d="M546 736c0 -30 -25 -55 -55 -55s-54 25 -54 55s24 54 54 54s55 -24 55 -54zM327 736c0 -30 -25 -54 -55 -54s-54 24 -54 54s24 55 54 55s55 -25 55 -55zM732 330c0 -201 -145 -343 -350 -343c-206 0 -351 142 -351 343c-1 204 142 342 351 342c208 0 350 -138 350 -342z
M598 330c0 133 -92 233 -216 233c-125 0 -217 -100 -217 -233c0 -134 92 -233 217 -233c124 0 216 99 216 233z" />
    <glyph glyph-name="Otilde" unicode="&#xd5;" horiz-adv-x="763" 
d="M581 750c-23 -22 -33 -29 -59 -40c-25 -10 -49 -16 -70 -16c-25 0 -54 9 -87 27c-31 17 -38 19 -56 19c-21 0 -33 -4 -62 -22c-3 -2 -8 -5 -15 -9l-33 57c33 21 43 27 60 35c21 9 43 15 63 15c4 0 8 -1 11 -1c23 -2 27 -4 79 -33c22 -12 35 -16 52 -16c27 0 40 6 84 37z
M732 330c0 -201 -145 -343 -350 -343c-206 0 -351 142 -351 343c-1 204 142 342 351 342c208 0 350 -138 350 -342zM598 330c0 133 -92 233 -216 233c-125 0 -217 -100 -217 -233c0 -134 92 -233 217 -233c124 0 216 99 216 233z" />
    <glyph glyph-name="Ocircumflex" unicode="&#xd4;" horiz-adv-x="763" 
d="M537 691h-87l-65 65l-65 -65h-87l112 117h80zM732 330c0 -201 -145 -343 -350 -343c-206 0 -351 142 -351 343c-1 204 142 342 351 342c208 0 350 -138 350 -342zM598 330c0 133 -92 233 -216 233c-125 0 -217 -100 -217 -233c0 -134 92 -233 217 -233
c124 0 216 99 216 233z" />
    <glyph glyph-name="Oacute" unicode="&#xd3;" horiz-adv-x="763" 
d="M531 808l-113 -118h-93l95 118h111zM732 330c0 -201 -145 -343 -350 -343c-206 0 -351 142 -351 343c-1 204 142 342 351 342c208 0 350 -138 350 -342zM598 330c0 133 -92 233 -216 233c-125 0 -217 -100 -217 -233c0 -134 92 -233 217 -233c124 0 216 99 216 233z" />
    <glyph glyph-name="Ograve" unicode="&#xd2;" horiz-adv-x="763" 
d="M444 690h-93l-113 118h112zM732 330c0 -201 -145 -343 -350 -343c-206 0 -351 142 -351 343c-1 204 142 342 351 342c208 0 350 -138 350 -342zM598 330c0 133 -92 233 -216 233c-125 0 -217 -100 -217 -233c0 -134 92 -233 217 -233c124 0 216 99 216 233z" />
    <glyph glyph-name="Ntilde" unicode="&#xd1;" horiz-adv-x="759" 
d="M570 743c-23 -22 -33 -29 -59 -40c-25 -10 -49 -16 -70 -16c-25 0 -54 9 -87 27c-31 17 -38 19 -56 19c-21 0 -33 -4 -62 -22c-3 -2 -8 -5 -15 -9l-33 57c33 21 43 27 60 35c21 9 43 15 63 15c4 0 8 -1 11 -1c23 -2 27 -4 79 -33c22 -12 35 -16 52 -16c27 0 40 6 84 37z
M662 -6h-132l-283 427c-2 3 -6 12 -14 26c-4 8 -7 13 -8 14c-4 8 -6 12 -9 23v-484h-120v660h145l277 -434c1 -2 4 -7 7 -14s5 -11 6 -13l6 -17l6 -12v490h119v-666z" />
    <glyph glyph-name="Eth" unicode="&#xd0;" horiz-adv-x="711" 
d="M686 332c0 -88 -33 -173 -91 -235c-61 -65 -148 -97 -267 -97h-244v301h-109v86h109v273h245c125 0 203 -28 268 -97c57 -61 89 -145 89 -231zM550 331c0 75 -29 144 -76 179c-35 26 -86 39 -158 39h-100v-162h147v-86h-147v-190h100c150 0 234 79 234 220z" />
    <glyph glyph-name="Idieresis" unicode="&#xcf;" horiz-adv-x="300" 
d="M278 732c0 -30 -24 -54 -54 -54s-55 24 -55 54s25 55 55 55s54 -25 54 -55zM134 732c0 -30 -24 -54 -54 -54s-55 24 -55 54s25 55 55 55s54 -25 54 -55zM213 0h-126v660h126v-660z" />
    <glyph glyph-name="Icircumflex" unicode="&#xce;" horiz-adv-x="300" 
d="M302 691h-87l-65 65l-65 -65h-86l111 117h80zM213 0h-126v660h126v-660z" />
    <glyph glyph-name="Iacute" unicode="&#xcd;" horiz-adv-x="300" 
d="M283 808l-113 -118h-93l94 118h112zM213 0h-126v660h126v-660z" />
    <glyph glyph-name="Igrave" unicode="&#xcc;" horiz-adv-x="300" 
d="M226 690h-93l-113 118h112zM213 0h-126v660h126v-660z" />
    <glyph glyph-name="Edieresis" unicode="&#xcb;" horiz-adv-x="539" 
d="M450 730c0 -30 -25 -54 -55 -54s-54 24 -54 54s24 55 54 55s55 -25 55 -55zM276 731c0 -30 -24 -55 -54 -55s-55 25 -55 55s25 54 55 54s54 -24 54 -54zM505 0h-415v660h402v-107h-276v-163h226v-107h-226v-176h289v-107z" />
    <glyph glyph-name="Ecircumflex" unicode="&#xca;" horiz-adv-x="539" 
d="M450 691h-87l-65 65l-65 -65h-87l112 117h80zM505 0h-415v660h402v-107h-276v-163h226v-107h-226v-176h289v-107z" />
    <glyph glyph-name="Eacute" unicode="&#xc9;" horiz-adv-x="539" 
d="M441 808l-113 -118h-93l95 118h111zM505 0h-415v660h402v-107h-276v-163h226v-107h-226v-176h289v-107z" />
    <glyph glyph-name="Egrave" unicode="&#xc8;" horiz-adv-x="539" 
d="M373 690h-93l-113 118h111zM505 0h-415v660h402v-107h-276v-163h226v-107h-226v-176h289v-107z" />
    <glyph glyph-name="Ccedilla" unicode="&#xc7;" horiz-adv-x="605" 
d="M582 609l-48 -100c-43 31 -94 46 -152 46c-127 0 -218 -90 -218 -215c0 -142 94 -235 238 -235c47 0 86 8 145 31l23 -106c-42 -19 -59 -25 -89 -32c-30 -6 -50 -9 -99 -11l-32 -57c53 0 84 -28 84 -75c0 -55 -47 -100 -104 -100c-28 0 -60 7 -103 24l21 56
c32 -13 55 -19 73 -19c21 0 37 16 37 37c0 28 -14 39 -52 39h-42l60 97c-96 15 -135 31 -188 80c-70 63 -111 161 -111 264c0 96 36 183 101 247c66 65 140 92 249 92c84 0 150 -20 207 -63z" />
    <glyph glyph-name="Aring" unicode="&#xc5;" horiz-adv-x="595" 
d="M392 766c0 -53 -43 -96 -96 -96c-54 0 -97 43 -97 96s43 97 97 97c53 0 96 -44 96 -97zM593 0h-132l-52 163h-221l-54 -163h-132l239 660h113zM337 766c0 23 -19 42 -41 42c-23 0 -42 -19 -42 -42s19 -41 42 -41c22 0 41 18 41 41zM375 270l-77 239l-76 -239h153z" />
    <glyph glyph-name="Adieresis" unicode="&#xc4;" horiz-adv-x="595" 
d="M439 727c0 -30 -25 -54 -55 -54s-54 24 -54 54c0 31 24 55 54 55s55 -24 55 -55zM274 730c0 -30 -24 -55 -54 -55s-55 25 -55 55s25 54 55 54s54 -24 54 -54zM593 0h-132l-52 163h-221l-54 -163h-132l239 660h113zM375 270l-77 239l-76 -239h153z" />
    <glyph glyph-name="Atilde" unicode="&#xc3;" horiz-adv-x="595" 
d="M486 730c-23 -22 -33 -29 -59 -40c-25 -10 -49 -16 -70 -16c-25 0 -54 9 -87 27c-31 17 -38 19 -56 19c-21 0 -33 -4 -62 -22c-3 -2 -8 -5 -15 -9l-33 57c33 21 43 27 60 35c21 9 43 15 63 15c4 0 8 -1 11 -1c23 -2 27 -4 79 -33c22 -12 35 -16 52 -16c27 0 40 6 84 37z
M593 0h-132l-52 163h-221l-54 -163h-132l239 660h113zM375 270l-77 239l-76 -239h153z" />
    <glyph glyph-name="Acircumflex" unicode="&#xc2;" horiz-adv-x="595" 
d="M452 691h-87l-65 65l-65 -65h-86l112 117h79zM593 0h-132l-52 163h-221l-54 -163h-132l239 660h113zM375 270l-77 239l-76 -239h153z" />
    <glyph glyph-name="Aacute" unicode="&#xc1;" horiz-adv-x="595" 
d="M442 808l-113 -118h-93l94 118h112zM593 0h-132l-52 163h-221l-54 -163h-132l239 660h113zM375 270l-77 239l-76 -239h153z" />
    <glyph glyph-name="Agrave" unicode="&#xc0;" horiz-adv-x="595" 
d="M367 690h-92l-113 118h111zM593 0h-132l-52 163h-221l-54 -163h-132l239 660h113zM375 270l-77 239l-76 -239h153z" />
    <glyph glyph-name="mu" unicode="&#xb5;" horiz-adv-x="545" 
d="M474 0h-120v78c-56 -62 -102 -86 -161 -86h-8l2 -215h-126l6 541v147h120v-299c0 -57 10 -79 38 -79c26 0 61 26 113 81l16 17v280h120v-465z" />
    <glyph glyph-name="plusminus" unicode="&#xb1;" 
d="M512 260h-196v-156h-82v156h-196v82h196v156h82v-156h196v-82zM512 0h-474v82h474v-82z" />
    <glyph glyph-name="degree" unicode="&#xb0;" horiz-adv-x="333" 
d="M286 552c0 -70 -56 -126 -126 -126c-65 0 -117 52 -117 117c0 70 56 126 126 126c64 0 117 -53 117 -117zM227 547c0 35 -28 63 -63 63c-34 0 -62 -28 -62 -63c0 -34 28 -63 62 -63c35 0 63 29 63 63z" />
    <glyph glyph-name="registered" unicode="&#xae;" horiz-adv-x="979" 
d="M900 243c0 -227 -184 -411 -410 -411c-227 0 -411 184 -411 411c0 226 184 410 411 410c226 0 410 -184 410 -410zM806 243c0 175 -141 317 -316 317s-317 -142 -317 -317s142 -317 317 -317s316 142 316 317zM672 6h-125l-104 182h-19v-182h-107v472h171
c126 0 184 -46 184 -143c0 -80 -40 -131 -111 -142zM557 326c0 42 -30 67 -81 67h-52v-135h52c50 0 81 26 81 68z" />
    <glyph glyph-name="logicalnot" unicode="&#xac;" 
d="M525 109h-82v163h-418v82h418h82v-82v-163z" />
    <glyph glyph-name="copyright" unicode="&#xa9;" horiz-adv-x="1009" 
d="M915 243c0 -227 -184 -411 -411 -411c-226 0 -410 184 -410 411c0 226 184 410 410 410c227 0 411 -184 411 -410zM821 243c0 175 -142 317 -317 317s-316 -142 -316 -317s141 -317 316 -317s317 142 317 317zM682 50c-14 -9 -24 -15 -32 -18c-39 -20 -84 -31 -132 -31
c-146 0 -244 95 -244 237c0 145 100 245 245 245c26 0 53 -4 75 -10c27 -8 45 -16 85 -42l-50 -79c-44 23 -68 31 -105 31c-80 0 -130 -55 -130 -143c0 -91 49 -146 130 -146c39 0 53 5 109 35z" />
    <glyph glyph-name="brokenbar" unicode="&#xa6;" horiz-adv-x="250" 
d="M180 309h-111v419h111v-419zM180 -240h-111v419h111v-419z" />
    <glyph glyph-name="minus" unicode="&#x2212;" 
d="M525 191h-500v82h500v-82z" />
    <glyph glyph-name="threesuperior" unicode="&#xb3;" horiz-adv-x="301" 
d="M278 376c0 -104 -89 -171 -219 -171h-52v79h35c44 0 64 3 83 11c32 11 55 45 55 76c0 37 -23 56 -73 56h-56v77c82 22 106 44 106 81c0 22 -13 35 -30 35s-35 -7 -84 -37l-43 67c44 29 89 54 144 54c69 0 113 -42 113 -110c0 -50 -22 -84 -67 -105c55 -14 88 -56 88 -113
z" />
    <glyph glyph-name="twosuperior" unicode="&#xb2;" horiz-adv-x="346" 
d="M332 355h-319v61l143 112c36 28 46 44 46 62s-13 31 -31 31c-41 0 -84 -35 -112 -58l-53 62c38 31 52 41 75 52c31 16 69 27 101 27c71 0 121 -43 121 -108c0 -50 -25 -73 -89 -125c-16 -14 -32 -28 -50 -39h168v-77z" />
    <glyph glyph-name="onesuperior" unicode="&#xb9;" horiz-adv-x="273" 
d="M198 355h-98v262h-80v81h178v-343z" />
    <glyph glyph-name="threequarters" unicode="&#xbe;" horiz-adv-x="850" 
d="M787 685l-565 -729h-95l566 729h94zM808 1h-70v-146h-95v146h-202v60l224 292h73v-274h70v-78zM338 376c0 -104 -89 -171 -219 -171h-52v79h35c44 0 64 3 83 11c32 11 55 45 55 76c0 37 -23 56 -73 56h-56v77c82 22 106 44 106 81c0 22 -13 35 -30 35s-35 -7 -84 -37
l-43 67c44 29 89 54 144 54c69 0 113 -42 113 -110c0 -50 -22 -84 -67 -105c55 -14 88 -56 88 -113zM643 79v119l-88 -119h88z" />
    <glyph glyph-name="onehalf" unicode="&#xbd;" horiz-adv-x="850" 
d="M803 0h-319v61l143 112c37 28 47 44 47 62s-14 31 -32 31c-41 0 -83 -35 -112 -58l-53 62c38 31 52 41 75 52c32 16 70 27 101 27c72 0 121 -43 121 -108c0 -50 -25 -73 -89 -125c-16 -14 -31 -28 -50 -39h168v-77zM707 685l-565 -729h-95l566 729h94zM237 355h-98v262
h-79v81h177v-343z" />
    <glyph glyph-name="onequarter" unicode="&#xbc;" horiz-adv-x="850" 
d="M778 1h-70v-146h-95v146h-202v60l224 292h73v-274h70v-78zM707 685l-565 -729h-95l566 729h94zM237 355h-98v262h-79v81h177v-343zM613 79v119l-88 -119h88z" />
    </font>
</defs>
</svg>
